<?xml version="1.0" standalone="no"?>
<!DOCTYPE svg PUBLIC "-//W3C//DTD SVG 20010904//EN"
 "http://www.w3.org/TR/2001/REC-SVG-20010904/DTD/svg10.dtd">
<svg version="1.0" xmlns="http://www.w3.org/2000/svg"
 width="500.000000pt" height="500.000000pt" viewBox="0 0 500.000000 500.000000"
 preserveAspectRatio="xMidYMid meet">

<g transform="translate(0.000000,500.000000) scale(0.100000,-0.100000)"
fill="#000000" stroke="none">
<path d="M1180 2710 c-11 -11 -20 -27 -20 -35 0 -18 35 -55 53 -55 27 0 57 31
57 59 0 20 -7 31 -25 39 -35 16 -42 15 -65 -8z"/>
<path d="M2708 2709 l-38 -11 -1 -76 c0 -43 -2 -90 -4 -107 -3 -25 -2 -27 6
-10 6 11 33 37 62 58 76 56 163 134 156 142 -12 11 -144 14 -181 4z"/>
<path d="M4248 2689 c-37 -27 -47 -81 -23 -125 36 -67 123 -66 166 2 26 43 20
76 -23 116 -36 34 -81 37 -120 7z"/>
<path d="M3420 2543 l2 -158 30 -28 31 -29 -6 -99 c-6 -92 -5 -101 15 -121 18
-18 28 -20 97 -15 42 4 87 6 99 7 22 0 24 3 20 54 -1 30 0 52 5 49 4 -2 7 1 7
6 0 6 -5 11 -12 11 -6 0 -8 3 -5 7 4 3 -2 20 -12 37 -10 17 -31 54 -46 81 -94
173 -206 355 -217 355 -5 0 -8 -67 -8 -157z"/>
<path d="M3983 2660 c-3 -11 -9 -20 -14 -20 -5 0 -9 -4 -9 -10 0 -8 -37 -69
-58 -95 -4 -5 -20 -32 -35 -59 -26 -46 -27 -55 -27 -192 0 -131 2 -146 20
-164 29 -29 66 -26 79 8 6 15 22 41 35 59 19 26 25 50 31 135 5 57 7 108 6
113 -3 13 6 4 10 -10 2 -5 9 -17 15 -25 7 -8 48 -60 92 -115 116 -147 135
-165 171 -165 37 0 52 27 41 76 -4 17 -3 39 3 49 7 13 6 16 -2 11 -7 -4 -11 1
-11 13 0 29 -309 411 -332 411 -6 0 -12 -9 -15 -20z"/>
<path d="M2922 2575 c-49 -41 -48 -88 1 -142 31 -35 90 -31 128 6 38 39 39 87
3 130 -34 40 -88 43 -132 6z"/>
<path d="M673 2548 c-12 -6 -24 -17 -27 -25 -8 -19 140 -392 167 -420 25 -28
58 -29 82 -3 30 33 165 372 165 414 0 28 -34 50 -58 37 -10 -6 -36 -59 -62
-128 -58 -157 -78 -203 -88 -203 -4 0 -23 44 -41 98 -77 228 -91 251 -138 230z"/>
<path d="M1191 2543 c-19 -17 -21 -29 -23 -226 -3 -196 -2 -209 16 -223 27
-19 42 -18 66 6 19 19 20 33 20 220 0 192 -1 200 -22 220 -27 24 -30 25 -57 3z"/>
<path d="M1912 2544 c-21 -15 -22 -21 -22 -178 0 -180 9 -222 56 -253 62 -40
159 -31 213 21 15 14 30 26 33 26 4 0 12 -16 18 -35 9 -29 17 -35 39 -35 49 0
51 9 51 232 l0 208 -25 16 c-23 15 -27 15 -50 0 -14 -9 -26 -17 -26 -19 -1 -1
-4 -71 -8 -155 -6 -153 -6 -154 -34 -178 -37 -32 -105 -33 -133 -3 -16 18 -20
43 -25 176 -5 147 -7 157 -28 174 -28 23 -31 23 -59 3z"/>
<path d="M1475 2536 c-47 -20 -85 -71 -85 -113 0 -53 47 -94 140 -122 118 -36
131 -42 141 -69 20 -52 -16 -82 -97 -82 -40 0 -49 5 -93 51 -43 45 -51 50 -70
40 -15 -8 -21 -21 -21 -45 0 -94 187 -148 308 -89 68 33 100 114 69 170 -22
39 -64 63 -157 87 -106 29 -120 38 -120 77 0 34 23 49 77 49 40 0 66 -13 108
-56 29 -29 46 -30 69 -5 16 18 16 22 2 49 -23 45 -88 72 -172 72 -38 -1 -83
-7 -99 -14z"/>
<path d="M2671 2375 c4 -94 -4 -231 -14 -245 -6 -8 -7 -12 -2 -7 4 4 17 -1 28
-10 14 -13 40 -19 96 -21 63 -2 84 1 123 20 l48 23 -98 100 c-53 55 -116 118
-140 140 l-43 40 2 -40z"/>
<path d="M3149 2251 c-21 -22 -29 -39 -29 -66 0 -27 8 -44 29 -66 39 -38 87
-39 130 -3 65 54 22 164 -64 164 -27 0 -44 -8 -66 -29z"/>
</g>
</svg>
